<?xml version="1.0" encoding="iso-8859-1"?>
<!-- Generator: Adobe Illustrator 23.0.0, SVG Export Plug-In . SVG Version: 6.00 Build 0)  -->
<svg version="1.1" id="Capa_1" xmlns="http://www.w3.org/2000/svg" xmlns:xlink="http://www.w3.org/1999/xlink" x="0px" y="0px"
	 viewBox="0 0 112.89 71.476" style="enable-background:new 0 0 112.89 71.476;" xml:space="preserve">
<g>
	<g>
		<path style="fill:#FFFFFF;" d="M43.098,35.079l-0.69,0.658c-0.469-0.496-0.997-0.744-1.584-0.744
			c-0.495,0-0.912,0.169-1.251,0.508c-0.339,0.338-0.508,0.756-0.508,1.252c0,0.346,0.075,0.652,0.225,0.921
			c0.15,0.268,0.363,0.478,0.637,0.631c0.275,0.153,0.58,0.229,0.915,0.229c0.286,0,0.548-0.053,0.785-0.16
			c0.237-0.107,0.498-0.302,0.781-0.584l0.669,0.698c-0.383,0.374-0.744,0.633-1.085,0.777c-0.341,0.144-0.729,0.217-1.166,0.217
			c-0.806,0-1.465-0.255-1.978-0.766s-0.77-1.165-0.77-1.964c0-0.517,0.117-0.976,0.351-1.377s0.568-0.725,1.004-0.969
			c0.436-0.244,0.905-0.366,1.407-0.366c0.427,0,0.839,0.09,1.235,0.271C42.471,34.489,42.812,34.746,43.098,35.079z"/>
		<path style="fill:#FFFFFF;" d="M46.685,35.517h0.962v3.833h-0.962v-0.405c-0.188,0.178-0.376,0.307-0.565,0.386
			c-0.189,0.079-0.393,0.118-0.614,0.118c-0.495,0-0.923-0.192-1.284-0.576c-0.361-0.384-0.542-0.861-0.542-1.432
			c0-0.592,0.175-1.077,0.524-1.455s0.774-0.567,1.274-0.567c0.23,0,0.446,0.043,0.647,0.13c0.202,0.087,0.388,0.217,0.56,0.391
			V35.517z M45.673,36.306c-0.297,0-0.544,0.105-0.741,0.315c-0.197,0.21-0.295,0.48-0.295,0.808c0,0.331,0.1,0.604,0.3,0.817
			c0.2,0.214,0.447,0.321,0.739,0.321c0.302,0,0.552-0.105,0.751-0.315c0.199-0.21,0.299-0.486,0.299-0.826
			c0-0.333-0.1-0.604-0.299-0.81C46.229,36.41,45.978,36.306,45.673,36.306z"/>
		<path style="fill:#FFFFFF;" d="M48.393,35.517h0.824V36c0.089-0.19,0.208-0.335,0.356-0.433c0.148-0.099,0.31-0.148,0.486-0.148
			c0.124,0,0.255,0.033,0.391,0.099l-0.299,0.828c-0.113-0.056-0.206-0.085-0.278-0.085c-0.148,0-0.273,0.092-0.375,0.275
			c-0.102,0.183-0.153,0.543-0.153,1.078l0.004,0.187v1.55h-0.955V35.517z"/>
		<path style="fill:#FFFFFF;" d="M51.042,34.104h0.962v1.413h0.571v0.828h-0.571v3.005h-0.962v-3.005h-0.493v-0.828h0.493V34.104z"
			/>
		<path style="fill:#FFFFFF;" d="M55.918,35.517h0.962v3.833h-0.962v-0.405c-0.188,0.178-0.376,0.307-0.565,0.386
			c-0.189,0.079-0.393,0.118-0.614,0.118c-0.495,0-0.923-0.192-1.284-0.576c-0.361-0.384-0.542-0.861-0.542-1.432
			c0-0.592,0.175-1.077,0.524-1.455c0.35-0.378,0.774-0.567,1.274-0.567c0.23,0,0.446,0.043,0.647,0.13
			c0.202,0.087,0.388,0.217,0.56,0.391V35.517z M54.907,36.306c-0.297,0-0.544,0.105-0.741,0.315
			c-0.197,0.21-0.295,0.48-0.295,0.808c0,0.331,0.1,0.604,0.3,0.817c0.2,0.214,0.447,0.321,0.739,0.321
			c0.302,0,0.552-0.105,0.751-0.315c0.199-0.21,0.299-0.486,0.299-0.826c0-0.333-0.1-0.604-0.299-0.81
			C55.463,36.41,55.211,36.306,54.907,36.306z"/>
		<path style="fill:#FFFFFF;" d="M60.198,36.053l-0.595,0.595c-0.242-0.24-0.461-0.359-0.659-0.359
			c-0.108,0-0.193,0.023-0.254,0.069c-0.061,0.046-0.092,0.103-0.092,0.171c0,0.052,0.019,0.099,0.058,0.143
			c0.039,0.043,0.134,0.103,0.287,0.178l0.352,0.176c0.371,0.183,0.626,0.37,0.764,0.56c0.139,0.19,0.208,0.413,0.208,0.669
			c0,0.341-0.125,0.625-0.375,0.853s-0.585,0.342-1.006,0.342c-0.559,0-1.005-0.218-1.339-0.655l0.592-0.645
			c0.113,0.132,0.245,0.238,0.396,0.319s0.286,0.122,0.403,0.122c0.127,0,0.229-0.031,0.306-0.092
			c0.077-0.061,0.116-0.132,0.116-0.211c0-0.148-0.14-0.292-0.419-0.433l-0.324-0.162c-0.62-0.312-0.93-0.703-0.93-1.173
			c0-0.303,0.117-0.562,0.351-0.777c0.234-0.215,0.533-0.322,0.897-0.322c0.249,0,0.483,0.055,0.703,0.164
			S60.045,35.848,60.198,36.053z"/>
	</g>
	<g>
		<path style="fill:#FFFFFF;" d="M66.602,38.873l1.125,1.454H66.27l-0.572-0.735c-0.472,0.259-0.999,0.388-1.58,0.388
			c-0.971,0-1.778-0.335-2.42-1.004s-0.964-1.467-0.964-2.393c0-0.618,0.149-1.186,0.448-1.703c0.299-0.517,0.71-0.928,1.234-1.233
			c0.523-0.305,1.085-0.457,1.686-0.457c0.917,0,1.706,0.331,2.364,0.993c0.658,0.662,0.987,1.469,0.987,2.422
			C67.455,37.481,67.17,38.237,66.602,38.873z M65.833,37.879c0.261-0.387,0.391-0.815,0.391-1.283c0-0.612-0.207-1.132-0.62-1.56
			c-0.414-0.428-0.914-0.641-1.5-0.641c-0.604,0-1.11,0.208-1.518,0.624c-0.408,0.416-0.612,0.945-0.612,1.587
			c0,0.715,0.257,1.28,0.77,1.696c0.402,0.325,0.859,0.488,1.369,0.488c0.294,0,0.569-0.057,0.827-0.172l-1.157-1.489h1.468
			L65.833,37.879z"/>
		<path style="fill:#FFFFFF;" d="M68.698,33.353h1.303c0.714,0,1.223,0.064,1.525,0.191c0.303,0.127,0.547,0.339,0.731,0.635
			c0.184,0.296,0.277,0.646,0.277,1.05c0,0.425-0.102,0.78-0.305,1.065c-0.204,0.286-0.51,0.502-0.921,0.648l1.531,2.874h-1.345
			l-1.454-2.738h-0.113v2.738h-1.23V33.353z M69.929,35.88h0.386c0.391,0,0.661-0.051,0.808-0.154
			c0.148-0.103,0.221-0.273,0.221-0.512c0-0.141-0.037-0.264-0.109-0.368c-0.073-0.104-0.171-0.179-0.293-0.225
			c-0.123-0.045-0.348-0.068-0.675-0.068h-0.337V35.88z"/>
	</g>
	
		<image style="overflow:visible;opacity:0.5;" width="1013" height="1003" xlink:href="8E639B55.png"  transform="matrix(0.0118 0 0 0.0118 60.8361 30.9936)">
	</image>
</g>
</svg>
